# xmcd
#
# Track frame offsets:
#	150
#	23762
#	45307
#	70400
#	86815
#	109247
#	131725
#	152930
#	174400
#	195465
#
# Disc length: 2933 seconds
#
# Revision: 2
# Processed by: cddbd v1.5.1PL2 Copyright (c) Steve Scherf et al.
# Submitted via: dBpowerAMP V4.0
#
DISCID=830b730a
DTITLE=Johnny "Guitar" Watson - Bow Wow
DYEAR=1994
DGENRE=blues
TTITLE0=Johnny G. Is Back
TTITLE1=Bow Wow
TTITLE2=Never To Late
TTITLE3=My Funk
TTITLE4=It Takes 2
TTITLE5=Time Change
TTITLE6=Doing Wrong Woman
TTITLE7=What's Up With You
TTITLE8=Hook Me Up
TTITLE9=I Don't Think So
EXTD=
EXTT0=
EXTT1=
EXTT2=
EXTT3=
EXTT4=
EXTT5=
EXTT6=
EXTT7=
EXTT8=
EXTT9=
PLAYORDER=
